<?xml version="1.0" encoding="utf-8"?>
<!-- Generator: Adobe Illustrator 19.0.0, SVG Export Plug-In . SVG Version: 6.00 Build 0)  -->
<svg version="1.1" id="Layer_1" xmlns="http://www.w3.org/2000/svg" xmlns:xlink="http://www.w3.org/1999/xlink" x="0px" y="0px"
	 viewBox="0 0 20 20" style="enable-background:new 0 0 20 20;" xml:space="preserve">
<style type="text/css">
	.st0{fill:#444444;}
</style>
<g>
	<path class="st0" d="M17.4,11.8l-7-7c-0.1-0.1-0.2-0.2-0.3-0.2S9.8,4.7,9.7,4.8l-7,7c-0.1,0.1-0.2,0.2-0.2,0.3
		c0,0.1,0.1,0.2,0.2,0.3l0.8,0.8c0.1,0.1,0.2,0.2,0.3,0.2c0.1,0,0.2-0.1,0.3-0.2L10,7.3l5.9,5.9c0.1,0.1,0.2,0.1,0.3,0.1
		c0.1,0,0.2-0.1,0.3-0.1l0.8-0.8c0.1-0.1,0.1-0.2,0.1-0.3C17.5,12,17.5,11.9,17.4,11.8z"/>
</g>
</svg>
