<?xml version="1.0" encoding="utf-8"?>
<!-- Generator: Adobe Illustrator 19.0.0, SVG Export Plug-In . SVG Version: 6.00 Build 0)  -->
<svg version="1.1" id="Layer_1" xmlns="http://www.w3.org/2000/svg" xmlns:xlink="http://www.w3.org/1999/xlink" x="0px" y="0px"
	 viewBox="-48 6 32 30" style="enable-background:new -48 6 32 30;" xml:space="preserve">
<style type="text/css">
	.st0{fill:#2EBBEC;}
</style>
<g id="XMLID_1_">
	<path id="XMLID_53_" class="st0" d="M-16,12.4c0,7.1,0,14.2,0,21.3c-0.2,0.3-0.3,0.7-0.5,1c-0.5,0.7-1.3,1-2.2,1
		c-8.9,0-17.8,0-26.7,0c-0.1,0-0.3,0-0.4,0c-0.7,0-1.2-0.3-1.6-0.8c-0.3-0.3-0.4-0.8-0.6-1.2c0-7,0-14.1,0-21.1
		c0-1.2,0.1-1.8,0.2-1.9c0.4-0.9,1.3-1.5,2.5-1.4c0.9,0,1.8,0,2.7,0c0.1,0,0.2,0,0.3,0c0-0.6,0-1.1,0-1.6c0-0.9,0.6-1.4,1.4-1.4
		c0.6,0,1.3,0,1.9,0c0.4,0,0.7,0.2,0.9,0.4c0.3,0.3,0.4,0.7,0.4,1.1c0,0.5,0,1,0,1.6c3.8,0,7.6,0,11.5,0c0-0.6,0-1.1,0-1.7
		c0-0.8,0.6-1.3,1.3-1.4c0.7,0,1.3,0,2,0s1.2,0.5,1.3,1.1c0,0.4,0,0.7,0,1.1c0,0.3,0,0.6,0,0.8c1,0,2,0,3,0c0.9,0,1.6,0.3,2.1,1
		C-16.3,10.6-16,11.2-16,12.4z M-17.5,17.1c-9.7,0-19.4,0-29.1,0c0,0.1,0,0.1,0,0.2c0,5.4,0,10.7,0,16.1c0,0.5,0.3,0.9,0.7,1
		c0.1,0,0.3,0,0.5,0c8.9,0,17.8,0,26.7,0c0.9,0,1.2-0.5,1.2-1.2c0-5.2,0-10.5,0-15.7C-17.5,17.3-17.5,17.2-17.5,17.1z M-42.3,10.8
		C-42.4,10.8-42.4,10.8-42.3,10.8c-1.1,0-2.2,0-3.2,0c-0.6,0-1,0.4-1,1c0,1,0,2.1,0,3.1c0,0.2,0,0.4,0,0.6c9.7,0,19.4,0,29.1,0
		c0-1.3,0-2.6,0-3.9c0-0.6-0.4-0.9-1.1-0.9c-0.9,0-1.9,0-2.8,0c-0.1,0-0.1,0-0.2,0c0,0.4,0,0.8,0,1.1c0,0.9-0.6,1.4-1.4,1.5
		c-0.5,0-1.1,0-1.6,0c-1.1,0-1.6-0.5-1.6-1.6c0-0.3,0-0.7,0-1c-3.8,0-7.6,0-11.4,0c0,0.4,0,0.8,0,1.3c0,0.7-0.5,1.3-1.2,1.3
		c-0.6,0-1.2,0-1.8,0c-1,0-1.6-0.5-1.6-1.6C-42.3,11.5-42.3,11.1-42.3,10.8z M-39.2,7.7c-0.6,0-1.2,0-1.7,0c0,1.4,0,2.8,0,4.2
		c0.6,0,1.2,0,1.7,0C-39.2,10.5-39.2,9.1-39.2,7.7z M-24.7,7.7c0,1.4,0,2.8,0,4.2c0.6,0,1.2,0,1.7,0c0-1.4,0-2.8,0-4.2
		C-23.6,7.7-24.2,7.7-24.7,7.7z"/>
	<g id="XMLID_2_">
		<path id="XMLID_14_" class="st0" d="M-21.9,29.8c0.4,0,0.7,0,1.1,0s0.7,0.3,0.7,0.7c0,0.4-0.2,0.7-0.6,0.7s-0.7,0-1.1,0
			s-0.8,0-1.2,0c-0.5,0-0.8-0.3-0.7-0.7c0-0.4,0.3-0.7,0.7-0.7C-22.7,29.8-22.3,29.8-21.9,29.8z"/>
		<path id="XMLID_13_" class="st0" d="M-42,20.2c0.4,0,0.7,0,1.1,0c0.4,0,0.7,0.3,0.7,0.6c0,0.4-0.2,0.7-0.6,0.7c-0.5,0-1,0-1.5,0
			c-0.3,0-0.6,0-0.9,0c-0.4,0-0.7-0.3-0.7-0.7c0-0.4,0.3-0.7,0.7-0.7C-42.8,20.2-42.4,20.2-42,20.2L-42,20.2z"/>
		<path id="XMLID_12_" class="st0" d="M-35.3,29.8c0.4,0,0.7,0,1.1,0c0.4,0,0.7,0.3,0.7,0.6c0,0.4-0.2,0.7-0.6,0.7
			c-0.3,0-0.6,0-0.9,0c-0.5,0-0.9,0-1.4,0s-0.8-0.3-0.8-0.7c0-0.4,0.3-0.7,0.8-0.7C-36,29.8-35.6,29.8-35.3,29.8z"/>
		<path id="XMLID_11_" class="st0" d="M-22,21.6c-0.4,0-0.7,0-1.1,0c-0.5,0-0.8-0.3-0.8-0.7c0-0.4,0.3-0.7,0.8-0.7
			c0.7,0,1.5,0,2.2,0c0.4,0,0.7,0.3,0.7,0.7c0,0.4-0.3,0.7-0.7,0.7c0,0,0,0-0.1,0C-21.2,21.6-21.6,21.6-22,21.6L-22,21.6z"/>
		<path id="XMLID_10_" class="st0" d="M-28.6,29.8c0.4,0,0.7,0,1.1,0s0.7,0.3,0.7,0.7c0,0.4-0.3,0.7-0.7,0.7c-0.3,0-0.7,0-1,0
			c-0.4,0-0.9,0-1.3,0c-0.5,0-0.8-0.3-0.7-0.7c0-0.4,0.3-0.7,0.7-0.7c0,0,0,0,0.1,0C-29.3,29.8-29,29.8-28.6,29.8z"/>
		<path id="XMLID_9_" class="st0" d="M-28.6,20.2c0.4,0,0.7,0,1.1,0s0.7,0.3,0.7,0.7s-0.3,0.7-0.7,0.7c-0.5,0-1,0-1.5,0
			c-0.3,0-0.5,0-0.8,0c-0.4,0-0.7-0.3-0.7-0.7s0.3-0.7,0.7-0.7c0,0,0,0,0.1,0C-29.4,20.2-29,20.2-28.6,20.2z"/>
		<path id="XMLID_8_" class="st0" d="M-42,29.8c0.4,0,0.7,0,1.1,0c0.4,0,0.7,0.2,0.7,0.6s-0.2,0.7-0.6,0.7c-0.3,0-0.5,0-0.8,0
			c-0.5,0-1,0-1.5,0s-0.8-0.3-0.8-0.7c0-0.4,0.3-0.7,0.8-0.7C-42.7,29.8-42.3,29.8-42,29.8z"/>
		<path id="XMLID_7_" class="st0" d="M-35.3,20.2c0.4,0,0.7,0,1.1,0c0.4,0,0.7,0.3,0.7,0.7s-0.2,0.7-0.6,0.7c-0.8,0-1.6,0-2.4,0
			c-0.4,0-0.6-0.3-0.6-0.7s0.3-0.7,0.7-0.7c0,0,0,0,0.1,0C-36,20.2-35.7,20.2-35.3,20.2z"/>
		<path id="XMLID_6_" class="st0" d="M-42,26.4c-0.4,0-0.7,0-1.1,0c-0.4,0-0.7-0.3-0.7-0.7c0-0.4,0.3-0.7,0.7-0.7c0.7,0,1.5,0,2.2,0
			c0.4,0,0.7,0.3,0.7,0.7c0,0.4-0.3,0.7-0.7,0.7C-41.3,26.4-41.6,26.4-42,26.4z"/>
		<path id="XMLID_5_" class="st0" d="M-28.7,26.4c-0.4,0-0.7,0-1.1,0c-0.5,0-0.7-0.3-0.7-0.7c0-0.4,0.3-0.7,0.7-0.7
			c0.7,0,1.5,0,2.2,0c0.4,0,0.7,0.3,0.7,0.7c0,0.4-0.3,0.7-0.7,0.7C-27.9,26.4-28.3,26.4-28.7,26.4z"/>
		<path id="XMLID_4_" class="st0" d="M-35.3,26.4c-0.4,0-0.7,0-1.1,0c-0.4,0-0.7-0.3-0.7-0.7c0-0.4,0.3-0.7,0.7-0.7
			c0.7,0,1.5,0,2.2,0c0.4,0,0.7,0.3,0.7,0.7c0,0.4-0.3,0.7-0.7,0.7c0,0,0,0-0.1,0C-34.6,26.4-35,26.4-35.3,26.4z"/>
		<path id="XMLID_3_" class="st0" d="M-22,26.4c-0.4,0-0.7,0-1.1,0s-0.7-0.3-0.7-0.7c0-0.4,0.3-0.7,0.7-0.7c0.7,0,1.5,0,2.2,0
			c0.4,0,0.7,0.3,0.7,0.7c0,0.4-0.3,0.7-0.7,0.7c0,0,0,0-0.1,0C-21.3,26.4-21.6,26.4-22,26.4L-22,26.4z"/>
	</g>
</g>
</svg>
