<?xml version="1.0" encoding="utf-8"?>
<!-- Generator: Adobe Illustrator 19.0.0, SVG Export Plug-In . SVG Version: 6.00 Build 0)  -->
<svg version="1.1" id="Layer_1" xmlns="http://www.w3.org/2000/svg" xmlns:xlink="http://www.w3.org/1999/xlink" x="0px" y="0px"
	 viewBox="-48 6 32 30" style="enable-background:new -48 6 32 30;" xml:space="preserve">
<style type="text/css">
	.st0{fill:#31BBEC;}
</style>
<g id="XMLID_1_">
	<path id="XMLID_53_" class="st0" d="M-16,12.4c0,7.1,0,14.2,0,21.3c-0.2,0.3-0.3,0.7-0.5,1c-0.5,0.7-1.3,1-2.2,1
		c-8.9,0-17.8,0-26.7,0c-0.1,0-0.3,0-0.4,0c-0.7,0-1.2-0.3-1.6-0.8c-0.3-0.3-0.4-0.8-0.6-1.2c0-7,0-14.1,0-21.1
		c0-1.2,0.1-1.8,0.2-1.9c0.4-0.9,1.3-1.5,2.5-1.4c0.9,0,1.8,0,2.7,0c0.1,0,0.2,0,0.3,0c0-0.6,0-1.1,0-1.6c0-0.9,0.6-1.4,1.4-1.4
		c0.6,0,1.3,0,1.9,0c0.4,0,0.7,0.2,0.9,0.4c0.3,0.3,0.4,0.7,0.4,1.1c0,0.5,0,1,0,1.6c3.8,0,7.6,0,11.5,0c0-0.6,0-1.1,0-1.7
		c0-0.8,0.6-1.3,1.3-1.4c0.7,0,1.3,0,2,0s1.2,0.5,1.3,1.1c0,0.4,0,0.7,0,1.1c0,0.3,0,0.6,0,0.8c1,0,2,0,3,0c0.9,0,1.6,0.3,2.1,1
		C-16.3,10.6-16,11.2-16,12.4z M-17.5,17.1c-9.7,0-19.4,0-29.1,0c0,0.1,0,0.1,0,0.2c0,5.4,0,10.7,0,16.1c0,0.5,0.3,0.9,0.7,1
		c0.1,0,0.3,0,0.5,0c8.9,0,17.8,0,26.7,0c0.9,0,1.2-0.5,1.2-1.2c0-5.2,0-10.5,0-15.7C-17.5,17.3-17.5,17.2-17.5,17.1z M-42.3,10.8
		c-0.1,0-0.1,0-0.1,0c-1,0-2.1,0-3.1,0c-0.6,0-1,0.4-1,1c0,1,0,2.1,0,3.1c0,0.2,0,0.4,0,0.6c9.7,0,19.4,0,29.1,0c0-1.3,0-2.6,0-3.9
		c0-0.6-0.4-0.9-1.1-0.9c-0.9,0-1.9,0-2.8,0c-0.1,0-0.1,0-0.2,0c0,0.4,0,0.8,0,1.1c0,0.9-0.6,1.4-1.4,1.5c-0.5,0-1.1,0-1.6,0
		c-1.1,0-1.6-0.5-1.6-1.6c0-0.3,0-0.7,0-1c-3.8,0-7.6,0-11.4,0c0,0.4,0,0.8,0,1.3c0,0.7-0.5,1.3-1.2,1.3c-0.6,0-1.2,0-1.8,0
		c-1,0-1.6-0.5-1.6-1.6C-42.3,11.5-42.3,11.1-42.3,10.8z M-39.2,7.7c-0.6,0-1.2,0-1.7,0c0,1.4,0,2.8,0,4.2c0.6,0,1.2,0,1.7,0
		C-39.2,10.5-39.2,9.1-39.2,7.7z M-24.7,7.7c0,1.4,0,2.8,0,4.2c0.6,0,1.2,0,1.7,0c0-1.4,0-2.8,0-4.2C-23.6,7.7-24.2,7.7-24.7,7.7z"
		/>
	<g id="XMLID_2_">
		<path id="XMLID_13_" class="st0" d="M-41.2,21.1c0.5,0,1,0,1.5,0s0.9,0.4,1,0.9c0,0.5-0.3,1-0.9,1c-0.7,0-1.4,0-2.1,0
			c-0.4,0-0.8,0-1.2,0c-0.5,0-0.9-0.4-0.9-0.9s0.4-0.9,0.9-1C-42.4,21.1-41.8,21.1-41.2,21.1L-41.2,21.1z"/>
		<path id="XMLID_9_" class="st0" d="M-22.9,21.1c0.5,0,1,0,1.5,0c0.6,0,1,0.4,1,0.9s-0.4,0.9-0.9,1c-0.7,0-1.4,0-2.1,0
			c-0.4,0-0.7,0-1.1,0c-0.6,0-1-0.4-1-1c0-0.5,0.4-0.9,1-0.9h0.1C-23.9,21.1-23.4,21.1-22.9,21.1z"/>
		<path id="XMLID_7_" class="st0" d="M-32,21.1c0.5,0,1,0,1.5,0s0.9,0.4,0.9,0.9s-0.3,0.9-0.8,1c-1.1,0-2.2,0-3.4,0
			c-0.5,0-0.9-0.4-0.9-0.9s0.4-0.9,0.9-1h0.1C-33.1,21.1-32.6,21.1-32,21.1z"/>
		<path id="XMLID_6_" class="st0" d="M-41.3,29.6c-0.5,0-1,0-1.5,0c-0.6,0-1-0.4-1-0.9s0.4-0.9,1-1c1,0,2.1,0,3.1,0c0.6,0,1,0.4,1,1
			c0,0.5-0.4,0.9-1,0.9C-40.3,29.6-40.8,29.6-41.3,29.6z"/>
		<path id="XMLID_5_" class="st0" d="M-23,29.6c-0.5,0-1,0-1.5,0c-0.6,0-1-0.4-1-0.9c0-0.6,0.4-1,1-1c1,0,2,0,3,0c0.6,0,1,0.4,1,1
			c0,0.5-0.4,0.9-1,0.9C-21.9,29.6-22.4,29.6-23,29.6z"/>
		<path id="XMLID_4_" class="st0" d="M-32.1,29.6c-0.5,0-1,0-1.5,0c-0.6,0-1-0.4-1-0.9s0.4-1,1-1c1,0,2.1,0,3.1,0c0.6,0,1,0.4,1,1
			c0,0.5-0.4,0.9-1,0.9h-0.1C-31.1,29.6-31.6,29.6-32.1,29.6z"/>
	</g>
</g>
</svg>
