<?xml version="1.0" encoding="utf-8"?>
<!-- Generator: Adobe Illustrator 19.0.0, SVG Export Plug-In . SVG Version: 6.00 Build 0)  -->
<svg version="1.1" id="Layer_1" xmlns="http://www.w3.org/2000/svg" xmlns:xlink="http://www.w3.org/1999/xlink" x="0px" y="0px"
	 viewBox="-48 6 32 30" style="enable-background:new -48 6 32 30;" xml:space="preserve">
<style type="text/css">
	.st0{fill:#2EBBEC;}
</style>
<g id="XMLID_1_">
	<path id="XMLID_53_" class="st0" d="M-16,12.4c0,7.1,0,14.2,0,21.3c-0.2,0.3-0.3,0.7-0.5,1c-0.5,0.7-1.3,1-2.2,1
		c-8.9,0-17.8,0-26.7,0c-0.1,0-0.3,0-0.4,0c-0.7,0-1.2-0.3-1.6-0.8c-0.3-0.3-0.4-0.8-0.6-1.2c0-7,0-14.1,0-21.1
		c0-1.2,0.1-1.8,0.2-1.9c0.4-0.9,1.3-1.5,2.5-1.4c0.9,0,1.8,0,2.7,0c0.1,0,0.2,0,0.3,0c0-0.6,0-1.1,0-1.6c0-0.9,0.6-1.4,1.4-1.4
		c0.6,0,1.3,0,1.9,0c0.4,0,0.7,0.2,0.9,0.4c0.3,0.3,0.4,0.7,0.4,1.1c0,0.5,0,1,0,1.6c3.8,0,7.6,0,11.5,0c0-0.6,0-1.1,0-1.7
		c0-0.8,0.6-1.3,1.3-1.4c0.7,0,1.3,0,2,0s1.2,0.5,1.3,1.1c0,0.4,0,0.7,0,1.1c0,0.3,0,0.6,0,0.8c1,0,2,0,3,0c0.9,0,1.6,0.3,2.1,1
		C-16.3,10.6-16,11.2-16,12.4z M-17.5,17.1c-9.7,0-19.4,0-29.1,0c0,0.1,0,0.1,0,0.2c0,5.4,0,10.7,0,16.1c0,0.5,0.3,0.9,0.7,1
		c0.1,0,0.3,0,0.5,0c8.9,0,17.8,0,26.7,0c0.9,0,1.2-0.5,1.2-1.2c0-5.2,0-10.5,0-15.7C-17.5,17.3-17.5,17.2-17.5,17.1z M-42.3,10.8
		C-42.4,10.8-42.4,10.8-42.3,10.8c-1.1,0-2.2,0-3.2,0c-0.6,0-1,0.4-1,1c0,1,0,2.1,0,3.1c0,0.2,0,0.4,0,0.6c9.7,0,19.4,0,29.1,0
		c0-1.3,0-2.6,0-3.9c0-0.6-0.4-0.9-1.1-0.9c-0.9,0-1.9,0-2.8,0c-0.1,0-0.1,0-0.2,0c0,0.4,0,0.8,0,1.1c0,0.9-0.6,1.4-1.4,1.5
		c-0.5,0-1.1,0-1.6,0c-1.1,0-1.6-0.5-1.6-1.6c0-0.3,0-0.7,0-1c-3.8,0-7.6,0-11.4,0c0,0.4,0,0.8,0,1.3c0,0.7-0.5,1.3-1.2,1.3
		c-0.6,0-1.2,0-1.8,0c-1,0-1.6-0.5-1.6-1.6C-42.3,11.5-42.3,11.1-42.3,10.8z M-39.2,7.7c-0.6,0-1.2,0-1.7,0c0,1.4,0,2.8,0,4.2
		c0.6,0,1.2,0,1.7,0C-39.2,10.5-39.2,9.1-39.2,7.7z M-24.7,7.7c0,1.4,0,2.8,0,4.2c0.6,0,1.2,0,1.7,0c0-1.4,0-2.8,0-4.2
		C-23.6,7.7-24.2,7.7-24.7,7.7z"/>
	<path id="XMLID_43_" class="st0" d="M-40.9,28.5c0.5,0,0.9,0,1.3,0c0.1,0,0.1,0.1,0.2,0.2c0.2,0.7,0.5,1.3,1,1.7
		c1.1,0.9,3.5,0.9,4.5-0.8c1-1.6,0.1-3.5-1.8-3.9c-0.5-0.1-1-0.1-1.6-0.2c0-0.4,0-0.8,0-1.2c0-0.1,0.1-0.1,0.2-0.2
		c0.5-0.1,1-0.2,1.5-0.4c0.9-0.4,1.3-1.1,1.2-2.1c-0.1-0.8-0.9-1.5-1.7-1.6c-1.3-0.2-2.2,0.3-2.7,1.6c-0.2,0.4-0.4,0.5-0.7,0.5
		s-0.6,0-0.9,0c0.1-0.2,0.1-0.4,0.2-0.6c0.5-1.5,1.5-2.6,3.1-2.8c2-0.3,4,0.9,4.3,2.8c0.2,1.2-0.2,2.2-1.1,2.9
		c-0.1,0.1-0.2,0.2-0.3,0.2l0,0c0.4,0.3,0.9,0.6,1.2,1c1.3,1.3,1.3,3.3,0.2,4.9c-1.5,2.3-5.2,2.5-6.9,0.4
		C-40.4,30.3-40.7,29.5-40.9,28.5z"/>
	<path id="XMLID_42_" class="st0" d="M-25.1,19.1c0,4.4,0,8.7,0,13.1c-0.4,0-0.8,0-1.3,0c-0.1,0-0.1-0.1-0.1-0.1c0-0.1,0-0.2,0-0.3
		c0-3.6,0-7.2,0-10.8c0-0.1,0-0.2,0-0.4c-0.7,0-1.3,0-2.1,0c0.2-0.3,0.4-0.5,0.5-0.8c0.2-0.5,0.5-0.6,1.1-0.6
		C-26.4,19.1-25.8,19.1-25.1,19.1z"/>
</g>
</svg>
