<?xml version="1.0" encoding="utf-8"?>
<!-- Generator: Adobe Illustrator 19.0.0, SVG Export Plug-In . SVG Version: 6.00 Build 0)  -->
<svg version="1.1" id="Layer_1" xmlns="http://www.w3.org/2000/svg" xmlns:xlink="http://www.w3.org/1999/xlink" x="0px" y="0px"
	 viewBox="30.5 -70 180 180" style="enable-background:new 30.5 -70 180 180;" xml:space="preserve">
<style type="text/css">
	.st0{fill:#FFFFFF;}
</style>
<g>
	<g>
		<path class="st0" d="M165.1-20.9c0.5,2.1,1.1,4.5,1.1,8c-2.6,0.5-4.6,2.9-4.6,5.7s1.9,5.1,4.6,5.7c-1.3,10.3-5.9,19.9-13.3,27.3
			s-17,12-27.3,13.3c-0.5-2.6-2.9-4.6-5.7-4.6s-5.1,1.9-5.7,4.6C104,37.7,94.4,33,87,25.7c-7.4-7.4-12-17-13.3-27.3
			c2.6-0.5,4.6-2.9,4.6-5.7s-1.9-5.1-4.6-5.7c1.3-10.3,5.9-19.9,13.3-27.3c7.4-7.4,17-12,27.3-13.3c0.5,2.6,2.9,4.6,5.7,4.6
			s5.1-1.9,5.7-4.6c5.8,0.7,11.3,2.5,16.4,5.2c5.9,3.2,13.1-5.8,6.6-9.6c-9.5-5.6-17.6-7.6-28.6-7.6c-32.1,0-58.2,26.1-58.2,58.2
			s26.1,58.2,58.2,58.2s58.2-26.1,58.2-58.2c0-5.8-0.6-11.2-2.1-16c-0.8-2.8-3.1-7.1-7.7-5.4C164.1-27.3,164.5-24,165.1-20.9z"/>
		<path class="st0" d="M164.6-53.2c-0.7,0-1.5,0.3-2.1,0.9h-0.3L135-24.1l-13.3,13.8c-0.1,0.1-0.1,0.1-0.3,0.2
			c-0.3,0.2-0.5,0.3-0.8,0.3c-0.3,0-0.5-0.1-0.8-0.3c-0.1-0.1-0.1-0.1-0.3-0.2l-9.9-11.1l-0.3-0.3c-0.6-0.6-1.3-0.9-2.1-0.9
			s-1.5,0.3-2.1,0.9l-4.2,4.2c-0.1,0.1-0.3,0.3-0.4,0.5c-0.3,0.5-0.5,1.1-0.5,1.6c0,0.5,0.2,1.1,0.5,1.6c0.1,0.2,0.3,0.3,0.4,0.5
			l0.6,0.9l16.8,18.7c0.1,0.1,0.3,0.3,0.5,0.4c0.5,0.3,1,0.5,1.7,0.5s1.2-0.2,1.7-0.5c0.1-0.1,0.3-0.3,0.5-0.4l36.8-38.2l8.3-8.5
			l3.2-3.3c1.2-1.2,1.2-3,0-4.2l-4.2-4.2C166.1-52.8,165.3-53.2,164.6-53.2z"/>
	</g>
	<g id="XMLID_1_">
		<path id="XMLID_47_" class="st0" d="M60.9,79H53l2.2-10.7c2.5,0.6,5.1,1,7.5,1c4.2-0.9,4.4-4.2,5.1-6.4c-1.5,0.4-3.1,0.7-4.8,0.7
			c-3.4,0-6.7-0.7-8.9-0.7C41,63,36,69.7,36,76.9c0,3.8,2,5.2,5.7,5.2c0-0.4-0.8-0.9-0.8-3.6c0-8.5,2.8-10.9,7-11.1l-7.6,35.7H48
			L52.3,83h7.9L60.9,79z"/>
		<path id="XMLID_48_" class="st0" d="M138.8,73.4c2.4,0,4.3-1.9,4.3-4.3c0-2.4-1.9-4.3-4.3-4.3c-2.4,0-4.3,1.9-4.3,4.3
			C134.5,71.5,136.4,73.4,138.8,73.4z"/>
		<path id="XMLID_51_" class="st0" d="M191.4,93.9c0-0.4,0-1.1,0.1-1.6c6.4-0.3,12.3-5.1,12.3-11.2c0-2.7-1.1-5.2-5.8-5.2
			c-11,0-14.5,12.9-14.5,19c0,0.1,0,0.1,0,0.2c-0.9,1.9-1.9,3-3.7,3c-1.6,0-2.1-0.9-2.1-2.2c0-3,2.6-9.4,2.6-13.8
			c0-4.3-2.5-6.1-5.9-6.1c-2,0-4.8,0.6-7.4,4.5c-0.6-3.4-2.7-4.6-5.5-4.6c-1.9,0-4.3,0.4-6.5,3l0.6-2.8h-7.7l-3.6,17.2
			c-0.8,2.7-2.7,4.7-4.8,4.7c-1.5,0-2.2-0.4-2.2-2c0-0.4,0-1,0.2-1.7l3.8-18.2h-7.7l-3.6,17.2C129,96,127.1,98,125,98
			c-1.5,0-2.2-0.4-2.2-2c0-0.4,0-1,0.2-1.7l3.4-16h3.3l0.4-2.1h-3.1l1.8-8.4l-7.9,1.1l-1.6,7.4h-1.8l-0.4,2.2h1.8l-3.3,15l0,0
			c-0.8,2.7-2.7,4.7-4.8,4.7c-1.5,0-2.2-0.4-2.2-2c0-0.4,0-1,0.2-1.7l6.2-28.8l-7.9,1.1l-5.7,26.8c-0.8,2.7-2.7,4.7-4.8,4.7
			c-1.5,0-2.2-0.4-2.2-2c0-0.4,0-1,0.2-1.7l6.2-28.8l-7.9,1.1l-5.7,26.8l0,0c-0.8,2.7-2.2,4.7-4.4,4.7c-1.5,0-2.2-0.4-2.2-2
			c0-0.4,0-1,0.2-1.7l3.8-18.2h-7.7l-3.6,17.2c-0.8,2.7-2.2,4.7-4.3,4.7c-1.1,0-1.6-1-1.6-2.2c0-0.4,0-1,0.1-1.5l3.8-18.2h-7.7
			l-3.6,17.2c-0.2,1.2-0.4,2.5-0.4,3.5c0,4.5,2.5,6.4,5.7,6.4c2.2,0,5.3-0.7,7.9-5.1c0.3,3.4,2.2,5.1,5.3,5.1c2.1,0,5.4-0.7,8.2-4.7
			c0.6,3.3,2.8,4.7,5.6,4.7c2.1,0,5.7-0.7,8.6-4.8c0.6,3.4,2.8,4.8,5.6,4.8c2.1,0,5.7-0.7,8.6-4.8c0.6,3.4,2.8,4.8,5.6,4.8
			c2.1,0,5.7-0.7,8.6-4.8c0.6,3.4,2.8,4.8,5.6,4.8c1.9,0,4.9-0.6,7.6-3.5l-0.7,3.1h7.7l3.6-17.2c0.8-2.7,2.2-4.9,4.4-4.9
			c1.1,0,1.6,1.1,1.6,2.4c0,0.4,0,0.9-0.1,1.3l-3.9,18.4h7.7l3.6-17.2c0.8-2.7,2.2-4.9,4.2-4.9c1.2,0,1.9,1,1.9,2.7
			c0,3.4-2.4,10-2.4,13.6c0,3,1.7,6.1,6.3,6.1c2.1,0,4.9-0.7,7.5-4.7c1.1,3.3,3.9,4.7,7.7,4.7c4.3,0,8.1-1.8,9.2-7.9
			c-1.7,1.5-4.3,2.8-6.3,2.8C192.9,98.3,191.4,97.2,191.4,93.9z M198.4,78.7c1,0,1.3,0.9,1.3,2.2c0,4.5-3.6,8.6-7.9,8.9
			C193,84.7,195.7,78.7,198.4,78.7z"/>
	</g>
</g>
</svg>
