<?xml version="1.0" encoding="utf-8"?>
<!-- Generator: Adobe Illustrator 19.0.0, SVG Export Plug-In . SVG Version: 6.00 Build 0)  -->
<svg version="1.1" id="Layer_1" xmlns="http://www.w3.org/2000/svg" xmlns:xlink="http://www.w3.org/1999/xlink" x="0px" y="0px"
	 viewBox="10 0 150 40" style="enable-background:new 10 0 150 40;" xml:space="preserve">
<style type="text/css">
	.st0{fill:#FFFFFF;}
</style>
<g id="XMLID_1_">
	<path id="XMLID_47_" class="st0" d="M32.2,16.5h-7l2-9.5c2.2,0.5,4.5,0.9,6.7,0.9c3.7-0.8,3.9-3.7,4.5-5.7
		c-1.3,0.4-2.8,0.6-4.3,0.6c-3,0-6-0.6-7.9-0.6C14.5,2.2,10,8.2,10,14.6c0,3.4,1.8,4.6,5.1,4.6c0-0.4-0.7-0.8-0.7-3.2
		c0-7.6,2.5-9.7,6.2-9.9l-6.8,31.8h6.9L24.5,20h7L32.2,16.5z"/>
	<path id="XMLID_48_" class="st0" d="M101.6,11.5c2.1,0,3.8-1.7,3.8-3.8s-1.7-3.8-3.8-3.8c-2.1,0-3.8,1.7-3.8,3.8
		C97.8,9.8,99.5,11.5,101.6,11.5z"/>
	<path id="XMLID_51_" class="st0" d="M148.5,29.7c0-0.4,0-1,0.1-1.4c5.7-0.3,11-4.5,11-10c0-2.4-1-4.6-5.2-4.6
		c-9.8,0-12.9,11.5-12.9,16.9c0,0.1,0,0.1,0,0.2c-0.8,1.7-1.7,2.7-3.3,2.7c-1.4,0-1.9-0.8-1.9-2c0-2.7,2.3-8.4,2.3-12.3
		c0-3.8-2.2-5.4-5.3-5.4c-1.8,0-4.3,0.5-6.6,4c-0.5-3-2.4-4.1-4.9-4.1c-1.7,0-3.8,0.4-5.8,2.7l0.5-2.5h-6.9l-3.2,15.3
		c-0.7,2.4-2.4,4.2-4.3,4.2c-1.3,0-2-0.4-2-1.8c0-0.4,0-0.9,0.2-1.5l3.4-16.2h-6.9l-3.2,15.3c-0.7,2.4-2.4,4.2-4.3,4.2
		c-1.3,0-2-0.4-2-1.8c0-0.4,0-0.9,0.2-1.5l3-14.3h2.9l0.4-1.9H91l1.6-7.5l-7,1L84.2,14h-1.6l-0.4,2h1.6l-2.9,13.4l0,0
		c-0.7,2.4-2.4,4.2-4.3,4.2c-1.3,0-2-0.4-2-1.8c0-0.4,0-0.9,0.2-1.5l5.5-25.7l-7,1l-5.1,23.9c-0.7,2.4-2.4,4.2-4.3,4.2
		c-1.3,0-2-0.4-2-1.8c0-0.4,0-0.9,0.2-1.5l5.5-25.7l-7,1l-5.1,23.9l0,0c-0.7,2.4-2,4.2-3.9,4.2c-1.3,0-2-0.4-2-1.8
		c0-0.4,0-0.9,0.2-1.5l3.4-16.2h-6.9l-3.2,15.3c-0.7,2.4-2,4.2-3.8,4.2c-1,0-1.4-0.9-1.4-2c0-0.4,0-0.9,0.1-1.3l3.4-16.2h-6.9
		l-3.2,15.3c-0.2,1.1-0.4,2.2-0.4,3.1c0,4,2.2,5.7,5.1,5.7c2,0,4.7-0.6,7-4.5c0.3,3,2,4.5,4.7,4.5c1.9,0,4.8-0.6,7.3-4.2
		c0.5,2.9,2.5,4.2,5,4.2c1.9,0,5.1-0.6,7.7-4.3c0.5,3,2.5,4.3,5,4.3c1.9,0,5.1-0.6,7.7-4.3c0.5,3,2.5,4.3,5,4.3
		c1.9,0,5.1-0.6,7.7-4.3c0.5,3,2.5,4.3,5,4.3c1.7,0,4.4-0.5,6.8-3.1l-0.6,2.8h6.9l3.2-15.3c0.7-2.4,2-4.4,3.9-4.4c1,0,1.4,1,1.4,2.1
		c0,0.4,0,0.8-0.1,1.2l-3.5,16.4h6.9l3.2-15.3c0.7-2.4,2-4.4,3.7-4.4c1.1,0,1.7,0.9,1.7,2.4c0,3-2.1,8.9-2.1,12.1
		c0,2.7,1.5,5.4,5.6,5.4c1.9,0,4.4-0.6,6.7-4.2c1,2.9,3.5,4.2,6.9,4.2c3.8,0,7.2-1.6,8.2-7c-1.5,1.3-3.8,2.5-5.6,2.5
		C149.8,33.7,148.5,32.7,148.5,29.7z M154.7,16.2c0.9,0,1.2,0.8,1.2,2c0,4-3.2,7.7-7,7.9C149.9,21.5,152.3,16.2,154.7,16.2z"/>
</g>
</svg>
